<svg width="207" height="51" viewBox="0 0 207 51" fill="none" xmlns="http://www.w3.org/2000/svg">
<path d="M24.9664 50.255C13.9383 50.2252 4.32924 43.2589 1.19467 32.8683C-1.42326 24.1618 0.274004 16.2037 6.16229 9.24899C9.78202 4.97518 14.4499 2.35559 19.9375 1.23457C23.0071 0.608515 26.169 0.582649 29.2485 1.1584C29.5929 1.22132 29.5962 1.31405 29.4621 1.59224C27.9475 4.74502 26.4401 7.90221 24.9399 11.0638C24.9027 11.1627 24.8337 11.2464 24.7438 11.3019C24.6539 11.3573 24.5482 11.3813 24.4431 11.3702C21.2878 11.4508 18.2501 12.5844 15.8134 14.5906C13.3767 16.5968 11.6808 19.3602 10.9958 22.4413C9.48397 29.1758 13.1269 36.142 19.555 38.6109C24.6567 40.5698 29.4041 39.7899 33.7226 36.4417C33.9429 36.2761 34.0339 36.243 34.1912 36.5162C35.8471 39.414 37.5173 42.3063 39.2019 45.193C39.3493 45.4464 39.2963 45.5606 39.0777 45.713C35.8249 48.0143 32.0621 49.4917 28.1125 50.0182C27.0687 50.1528 26.0185 50.2319 24.9664 50.255Z" fill="#EF492D"/>
<path d="M42.0983 43.085C41.9625 43.0122 41.9244 42.8632 41.8549 42.7423C39.9716 39.4857 38.0949 36.2259 36.2249 32.9627C36.1613 32.829 36.0576 32.7185 35.9281 32.6467C35.7987 32.5748 35.65 32.5452 35.5029 32.562C31.764 32.5736 28.0267 32.562 24.2877 32.562H23.8224C23.8191 32.4183 23.8713 32.279 23.9681 32.1728C25.8669 28.8743 27.7667 25.5758 29.6676 22.2774C29.7181 22.1683 29.8014 22.0777 29.906 22.0183C30.0105 21.9589 30.131 21.9337 30.2505 21.9462C34.0778 21.9561 37.904 21.9561 41.729 21.9462C41.8479 21.9338 41.9677 21.9591 42.0714 22.0185C42.1751 22.0779 42.2575 22.1685 42.3069 22.2774C44.2156 25.6034 46.1331 28.9251 48.0594 32.2424C48.1238 32.3274 48.16 32.4304 48.1629 32.537C48.1659 32.6435 48.1355 32.7484 48.076 32.8368C46.1408 36.1784 44.2128 39.5166 42.292 42.8516C42.2407 42.936 42.2175 43.0519 42.0983 43.085Z" fill="#EF492D"/>
<path d="M34.0375 8.0567C33.352 7.37117 32.7128 6.71544 32.0505 6.06965C31.8452 5.87095 31.9892 5.72357 32.077 5.57289C32.8349 4.25312 34.069 3.27324 35.5262 2.83408C36.4092 2.54267 37.3435 2.43927 38.2689 2.53052C39.1943 2.62178 40.0903 2.90568 40.8995 3.36396C43.88 4.97512 43.6134 8.71242 41.893 10.4014C41.2407 11.0295 40.5019 11.5609 39.699 11.9795C38.871 12.4199 38.0431 12.8355 37.2317 13.3042C36.5578 13.69 36.0329 14.2232 35.7894 14.9948C35.6901 15.3061 35.7497 15.3872 36.0825 15.3839C38.2716 15.3707 40.4623 15.3839 42.653 15.3707C42.9842 15.3707 43.1084 15.4336 43.0951 15.7946C43.0653 16.5679 43.0769 17.3428 43.0951 18.1128C43.0951 18.3579 43.0273 18.444 42.7756 18.444C39.2552 18.4374 35.7359 18.4374 32.2177 18.444C32.0521 18.444 31.8981 18.444 31.8965 18.2039C31.8965 15.7664 32.3469 13.4962 34.2544 11.7576C35.1631 10.9529 36.1831 10.2837 37.283 9.77053C37.8858 9.47578 38.4951 9.19428 39.0217 8.76707C39.482 8.39284 39.8 7.93913 39.8331 7.32646C39.8828 6.36771 39.1244 5.65568 37.9785 5.58117C36.3309 5.4636 35.142 6.20543 34.3107 7.58312C34.228 7.7189 34.1518 7.85799 34.0375 8.0567Z" fill="#EF492D"/>
<path d="M90.213 4.92705C90.5124 4.00574 91.8158 4.00574 92.1151 4.92705L93.4092 8.90983C93.5431 9.32185 93.927 9.60081 94.3603 9.60081H98.548C99.5167 9.60081 99.9195 10.8404 99.1358 11.4098L95.7478 13.8713C95.3973 14.126 95.2507 14.5773 95.3846 14.9894L96.6786 18.9721C96.978 19.8934 95.9235 20.6596 95.1398 20.0902L91.7518 17.6287C91.4014 17.374 90.9268 17.374 90.5763 17.6287L87.1883 20.0902C86.4046 20.6596 85.3501 19.8934 85.6495 18.9721L86.9436 14.9894C87.0774 14.5773 86.9308 14.126 86.5803 13.8713L83.1923 11.4098C82.4086 10.8404 82.8114 9.60081 83.7801 9.60081H87.9679C88.4011 9.60081 88.785 9.32185 88.9189 8.90983L90.213 4.92705Z" fill="#EF492D"/>
<path d="M116.213 4.92705C116.512 4.00574 117.816 4.00574 118.115 4.92705L119.409 8.90983C119.543 9.32185 119.927 9.60081 120.36 9.60081H124.548C125.517 9.60081 125.919 10.8404 125.136 11.4098L121.748 13.8713C121.397 14.126 121.251 14.5773 121.385 14.9894L122.679 18.9721C122.978 19.8934 121.924 20.6596 121.14 20.0902L117.752 17.6287C117.401 17.374 116.927 17.374 116.576 17.6287L113.188 20.0902C112.405 20.6596 111.35 19.8934 111.649 18.9721L112.944 14.9894C113.077 14.5773 112.931 14.126 112.58 13.8713L109.192 11.4098C108.409 10.8404 108.811 9.60081 109.78 9.60081H113.968C114.401 9.60081 114.785 9.32185 114.919 8.90983L116.213 4.92705Z" fill="#EF492D"/>
<path d="M142.213 4.92705C142.512 4.00574 143.816 4.00574 144.115 4.92705L145.409 8.90983C145.543 9.32185 145.927 9.60081 146.36 9.60081H150.548C151.517 9.60081 151.919 10.8404 151.136 11.4098L147.748 13.8713C147.397 14.126 147.251 14.5773 147.385 14.9894L148.679 18.9721C148.978 19.8934 147.924 20.6596 147.14 20.0902L143.752 17.6287C143.401 17.374 142.927 17.374 142.576 17.6287L139.188 20.0902C138.405 20.6596 137.35 19.8934 137.649 18.9721L138.944 14.9894C139.077 14.5773 138.931 14.126 138.58 13.8713L135.192 11.4098C134.409 10.8404 134.811 9.60081 135.78 9.60081H139.968C140.401 9.60081 140.785 9.32185 140.919 8.90983L142.213 4.92705Z" fill="#EF492D"/>
<path d="M168.213 4.92705C168.512 4.00574 169.816 4.00574 170.115 4.92705L171.409 8.90983C171.543 9.32185 171.927 9.60081 172.36 9.60081H176.548C177.517 9.60081 177.919 10.8404 177.136 11.4098L173.748 13.8713C173.397 14.126 173.251 14.5773 173.385 14.9894L174.679 18.9721C174.978 19.8934 173.924 20.6596 173.14 20.0902L169.752 17.6287C169.401 17.374 168.927 17.374 168.576 17.6287L165.188 20.0902C164.405 20.6596 163.35 19.8934 163.649 18.9721L164.944 14.9894C165.077 14.5773 164.931 14.126 164.58 13.8713L161.192 11.4098C160.409 10.8404 160.811 9.60081 161.78 9.60081H165.968C166.401 9.60081 166.785 9.32185 166.919 8.90983L168.213 4.92705Z" fill="#EF492D"/>
<path d="M194.213 4.92705C194.512 4.00574 195.816 4.00574 196.115 4.92705L197.409 8.90983C197.543 9.32185 197.927 9.60081 198.36 9.60081H202.548C203.517 9.60081 203.919 10.8404 203.136 11.4098L199.748 13.8713C199.397 14.126 199.251 14.5773 199.385 14.9894L200.679 18.9721C200.978 19.8934 199.924 20.6596 199.14 20.0902L195.752 17.6287C195.401 17.374 194.927 17.374 194.576 17.6287L191.188 20.0902C190.405 20.6596 189.35 19.8934 189.649 18.9721L190.944 14.9894C191.077 14.5773 190.931 14.126 190.58 13.8713L187.192 11.4098C186.409 10.8404 186.811 9.60081 187.78 9.60081H191.968C192.401 9.60081 192.785 9.32185 192.919 8.90983L194.213 4.92705Z" fill="#EF492D"/>
<path d="M90.3857 33.3965V35.0576H86.3955V46H84.6465V35.0576H80.6475V33.3965H90.3857ZM94.0859 37.0352C94.9238 37.0352 95.6885 37.2373 96.3799 37.6416C97.0713 38.04 97.6162 38.5908 98.0146 39.2939C98.4189 39.9971 98.6211 40.7734 98.6211 41.623C98.6211 42.9062 98.1816 43.9873 97.3027 44.8662C96.4297 45.7393 95.3574 46.1758 94.0859 46.1758C93.248 46.1758 92.4805 45.9766 91.7832 45.5781C91.0918 45.1797 90.5469 44.6318 90.1484 43.9346C89.75 43.2373 89.5508 42.4668 89.5508 41.623C89.5508 40.3281 89.9873 39.2412 90.8604 38.3623C91.7334 37.4775 92.8086 37.0352 94.0859 37.0352ZM94.0859 38.6172C93.2598 38.6172 92.5654 38.9043 92.0029 39.4785C91.4463 40.0527 91.168 40.7676 91.168 41.623C91.168 42.4609 91.4463 43.167 92.0029 43.7412C92.5654 44.3096 93.2598 44.5938 94.0859 44.5938C94.9062 44.5938 95.5977 44.3066 96.1602 43.7324C96.7227 43.1582 97.0039 42.4551 97.0039 41.623C97.0039 40.7676 96.7227 40.0527 96.1602 39.4785C95.5977 38.9043 94.9062 38.6172 94.0859 38.6172ZM105.459 37.0352C106.244 37.0352 106.965 37.2373 107.621 37.6416C108.277 38.0459 108.796 38.5996 109.177 39.3027C109.558 40.0059 109.748 40.7734 109.748 41.6055C109.748 42.4375 109.558 43.2051 109.177 43.9082C108.796 44.6113 108.277 45.165 107.621 45.5693C106.965 45.9736 106.244 46.1758 105.459 46.1758C104.703 46.1758 104.041 46.0088 103.473 45.6748C102.91 45.335 102.465 44.8545 102.137 44.2334V49.1816H100.458V37.2197H102.137V38.9775C102.465 38.3564 102.91 37.8789 103.473 37.5449C104.041 37.2051 104.703 37.0352 105.459 37.0352ZM105.125 44.5938C105.957 44.5938 106.66 44.3066 107.234 43.7324C107.814 43.1523 108.104 42.4434 108.104 41.6055C108.104 40.7676 107.814 40.0615 107.234 39.4873C106.66 38.9072 105.957 38.6172 105.125 38.6172C104.264 38.6172 103.549 38.9014 102.98 39.4697C102.418 40.0322 102.137 40.7441 102.137 41.6055C102.137 42.4668 102.418 43.1816 102.98 43.75C103.549 44.3125 104.264 44.5938 105.125 44.5938ZM120.717 37.0352C121.502 37.0352 122.223 37.2373 122.879 37.6416C123.535 38.0459 124.054 38.5996 124.435 39.3027C124.815 40.0059 125.006 40.7734 125.006 41.6055C125.006 42.4375 124.815 43.2051 124.435 43.9082C124.054 44.6113 123.535 45.165 122.879 45.5693C122.223 45.9736 121.502 46.1758 120.717 46.1758C119.961 46.1758 119.299 46.0088 118.73 45.6748C118.168 45.335 117.723 44.8545 117.395 44.2334V49.1816H115.716V37.2197H117.395V38.9775C117.723 38.3564 118.168 37.8789 118.73 37.5449C119.299 37.2051 119.961 37.0352 120.717 37.0352ZM120.383 44.5938C121.215 44.5938 121.918 44.3066 122.492 43.7324C123.072 43.1523 123.362 42.4434 123.362 41.6055C123.362 40.7676 123.072 40.0615 122.492 39.4873C121.918 38.9072 121.215 38.6172 120.383 38.6172C119.521 38.6172 118.807 38.9014 118.238 39.4697C117.676 40.0322 117.395 40.7441 117.395 41.6055C117.395 42.4668 117.676 43.1816 118.238 43.75C118.807 44.3125 119.521 44.5938 120.383 44.5938ZM134.858 41.3945C134.858 41.6465 134.847 41.8662 134.823 42.0537H127.766C127.865 42.8564 128.173 43.4951 128.688 43.9697C129.21 44.4443 129.875 44.6816 130.684 44.6816C131.299 44.6816 131.829 44.5439 132.274 44.2686C132.72 43.9873 132.998 43.6152 133.109 43.1523H134.771C134.606 44.0664 134.144 44.7988 133.382 45.3496C132.62 45.9004 131.703 46.1758 130.631 46.1758C129.354 46.1758 128.284 45.7363 127.423 44.8574C126.562 43.9727 126.131 42.877 126.131 41.5703C126.131 40.7383 126.327 39.9766 126.72 39.2852C127.112 38.5879 127.651 38.04 128.337 37.6416C129.028 37.2373 129.787 37.0352 130.613 37.0352C131.803 37.0352 132.808 37.4482 133.628 38.2744C134.448 39.1006 134.858 40.1406 134.858 41.3945ZM127.818 40.6562H133.057C132.986 40.0352 132.72 39.5283 132.257 39.1357C131.8 38.7432 131.229 38.5469 130.543 38.5469C129.852 38.5469 129.263 38.7344 128.776 39.1094C128.29 39.4844 127.971 40 127.818 40.6562ZM140.773 37.0527C141.055 37.0527 141.324 37.0879 141.582 37.1582V38.6963C141.271 38.5967 140.984 38.5469 140.721 38.5469C140.047 38.5469 139.484 38.7783 139.033 39.2412C138.588 39.6982 138.365 40.3018 138.365 41.0518V46H136.687V37.2197H138.365V38.4941C138.629 38.043 138.969 37.6914 139.385 37.4395C139.801 37.1816 140.264 37.0527 140.773 37.0527ZM147.567 34.6797C146.39 34.6797 145.801 35.2363 145.801 36.3496V37.2197H148.191V38.8018H145.801V46H144.148V38.8018H142.435V37.2197H144.148V36.332C144.148 35.2832 144.424 34.4863 144.975 33.9414C145.525 33.3906 146.275 33.1152 147.225 33.1152C147.576 33.1152 147.898 33.1504 148.191 33.2207V34.75C148.01 34.7031 147.802 34.6797 147.567 34.6797ZM153.025 37.0352C153.863 37.0352 154.628 37.2373 155.319 37.6416C156.011 38.04 156.556 38.5908 156.954 39.2939C157.358 39.9971 157.561 40.7734 157.561 41.623C157.561 42.9062 157.121 43.9873 156.242 44.8662C155.369 45.7393 154.297 46.1758 153.025 46.1758C152.188 46.1758 151.42 45.9766 150.723 45.5781C150.031 45.1797 149.486 44.6318 149.088 43.9346C148.689 43.2373 148.49 42.4668 148.49 41.623C148.49 40.3281 148.927 39.2412 149.8 38.3623C150.673 37.4775 151.748 37.0352 153.025 37.0352ZM153.025 38.6172C152.199 38.6172 151.505 38.9043 150.942 39.4785C150.386 40.0527 150.107 40.7676 150.107 41.623C150.107 42.4609 150.386 43.167 150.942 43.7412C151.505 44.3096 152.199 44.5938 153.025 44.5938C153.846 44.5938 154.537 44.3066 155.1 43.7324C155.662 43.1582 155.943 42.4551 155.943 41.623C155.943 40.7676 155.662 40.0527 155.1 39.4785C154.537 38.9043 153.846 38.6172 153.025 38.6172ZM163.484 37.0527C163.766 37.0527 164.035 37.0879 164.293 37.1582V38.6963C163.982 38.5967 163.695 38.5469 163.432 38.5469C162.758 38.5469 162.195 38.7783 161.744 39.2412C161.299 39.6982 161.076 40.3018 161.076 41.0518V46H159.397V37.2197H161.076V38.4941C161.34 38.043 161.68 37.6914 162.096 37.4395C162.512 37.1816 162.975 37.0527 163.484 37.0527ZM176.088 37.0352C177.172 37.0352 178.039 37.3662 178.689 38.0283C179.346 38.6846 179.674 39.5723 179.674 40.6914V46H178.013V41.0342C178.013 40.2842 177.819 39.6953 177.433 39.2676C177.046 38.834 176.516 38.6172 175.842 38.6172C175.232 38.6172 174.708 38.8223 174.269 39.2324C173.829 39.6367 173.609 40.2373 173.609 41.0342V46H171.948V41.0342C171.948 40.2842 171.752 39.6953 171.359 39.2676C170.973 38.834 170.437 38.6172 169.751 38.6172C169.153 38.6172 168.638 38.8193 168.204 39.2236C167.776 39.6221 167.562 40.2256 167.562 41.0342V46H165.884V37.2197H167.562V38.582C167.855 38.043 168.248 37.6504 168.74 37.4043C169.238 37.1582 169.763 37.0352 170.313 37.0352C171.726 37.0352 172.687 37.6123 173.196 38.7666C173.442 38.2334 173.829 37.8115 174.356 37.501C174.884 37.1904 175.461 37.0352 176.088 37.0352ZM190.247 41.3945C190.247 41.6465 190.235 41.8662 190.212 42.0537H183.154C183.254 42.8564 183.562 43.4951 184.077 43.9697C184.599 44.4443 185.264 44.6816 186.072 44.6816C186.688 44.6816 187.218 44.5439 187.663 44.2686C188.108 43.9873 188.387 43.6152 188.498 43.1523H190.159C189.995 44.0664 189.532 44.7988 188.771 45.3496C188.009 45.9004 187.092 46.1758 186.02 46.1758C184.742 46.1758 183.673 45.7363 182.812 44.8574C181.95 43.9727 181.52 42.877 181.52 41.5703C181.52 40.7383 181.716 39.9766 182.108 39.2852C182.501 38.5879 183.04 38.04 183.726 37.6416C184.417 37.2373 185.176 37.0352 186.002 37.0352C187.191 37.0352 188.196 37.4482 189.017 38.2744C189.837 39.1006 190.247 40.1406 190.247 41.3945ZM183.207 40.6562H188.445C188.375 40.0352 188.108 39.5283 187.646 39.1357C187.188 38.7432 186.617 38.5469 185.932 38.5469C185.24 38.5469 184.651 38.7344 184.165 39.1094C183.679 39.4844 183.359 40 183.207 40.6562ZM196.162 37.0527C196.443 37.0527 196.713 37.0879 196.971 37.1582V38.6963C196.66 38.5967 196.373 38.5469 196.109 38.5469C195.436 38.5469 194.873 38.7783 194.422 39.2412C193.977 39.6982 193.754 40.3018 193.754 41.0518V46H192.075V37.2197H193.754V38.4941C194.018 38.043 194.357 37.6914 194.773 37.4395C195.189 37.1816 195.652 37.0527 196.162 37.0527Z" fill="#65816D"/>
</svg>