<svg width="274" height="57" viewBox="0 0 274 57" fill="none" xmlns="http://www.w3.org/2000/svg">
<path d="M55.5871 24.4357H34.423L27.8858 4.29297L21.3282 24.4357L0.164062 24.4152L17.3037 36.8768L10.7461 56.999L27.8858 44.5579L45.0051 56.999L38.4679 36.8768L55.5871 24.4357Z" fill="#00B67A"/>
<path d="M39.9357 41.4306L38.4649 36.875L27.8828 44.5562L39.9357 41.4306Z" fill="#005128"/>
<path d="M88.8604 6.39648H96.1025V8.05762H90.6094V11.5117H95.5049V13.1641H90.6094V17.3477H96.1025V19H88.8604V6.39648ZM105.867 19H103.863L101.596 15.8535L99.3281 19H97.3682L100.629 14.4648L97.5615 10.2197H99.5479L101.613 13.0762L103.67 10.2197H105.647L102.606 14.4648L105.867 19ZM110.719 19.1758C109.881 19.1758 109.113 18.9766 108.416 18.5781C107.725 18.1797 107.18 17.6318 106.781 16.9346C106.383 16.2373 106.184 15.4668 106.184 14.623C106.184 13.3281 106.62 12.2412 107.493 11.3623C108.366 10.4775 109.441 10.0352 110.719 10.0352C111.744 10.0352 112.649 10.3428 113.435 10.958C114.226 11.5674 114.694 12.3291 114.841 13.2432H113.145C113.016 12.7744 112.723 12.3877 112.266 12.083C111.809 11.7725 111.293 11.6172 110.719 11.6172C109.893 11.6172 109.198 11.9043 108.636 12.4785C108.079 13.0527 107.801 13.7676 107.801 14.623C107.801 15.4609 108.079 16.167 108.636 16.7412C109.198 17.3096 109.893 17.5938 110.719 17.5938C111.305 17.5938 111.829 17.4385 112.292 17.1279C112.755 16.8115 113.045 16.4043 113.162 15.9062H114.841C114.712 16.8613 114.255 17.6465 113.47 18.2617C112.685 18.8711 111.768 19.1758 110.719 19.1758ZM124.755 14.3945C124.755 14.6465 124.743 14.8662 124.72 15.0537H117.662C117.762 15.8564 118.069 16.4951 118.585 16.9697C119.106 17.4443 119.771 17.6816 120.58 17.6816C121.195 17.6816 121.726 17.5439 122.171 17.2686C122.616 16.9873 122.895 16.6152 123.006 16.1523H124.667C124.503 17.0664 124.04 17.7988 123.278 18.3496C122.517 18.9004 121.6 19.1758 120.527 19.1758C119.25 19.1758 118.181 18.7363 117.319 17.8574C116.458 16.9727 116.027 15.877 116.027 14.5703C116.027 13.7383 116.224 12.9766 116.616 12.2852C117.009 11.5879 117.548 11.04 118.233 10.6416C118.925 10.2373 119.684 10.0352 120.51 10.0352C121.699 10.0352 122.704 10.4482 123.524 11.2744C124.345 12.1006 124.755 13.1406 124.755 14.3945ZM117.715 13.6562H122.953C122.883 13.0352 122.616 12.5283 122.153 12.1357C121.696 11.7432 121.125 11.5469 120.439 11.5469C119.748 11.5469 119.159 11.7344 118.673 12.1094C118.187 12.4844 117.867 13 117.715 13.6562ZM128.191 6.39648V19H126.513V6.39648H128.191ZM132.164 6.39648V19H130.485V6.39648H132.164ZM142.509 14.3945C142.509 14.6465 142.497 14.8662 142.474 15.0537H135.416C135.516 15.8564 135.823 16.4951 136.339 16.9697C136.86 17.4443 137.525 17.6816 138.334 17.6816C138.949 17.6816 139.479 17.5439 139.925 17.2686C140.37 16.9873 140.648 16.6152 140.76 16.1523H142.421C142.257 17.0664 141.794 17.7988 141.032 18.3496C140.271 18.9004 139.354 19.1758 138.281 19.1758C137.004 19.1758 135.935 18.7363 135.073 17.8574C134.212 16.9727 133.781 15.877 133.781 14.5703C133.781 13.7383 133.978 12.9766 134.37 12.2852C134.763 11.5879 135.302 11.04 135.987 10.6416C136.679 10.2373 137.438 10.0352 138.264 10.0352C139.453 10.0352 140.458 10.4482 141.278 11.2744C142.099 12.1006 142.509 13.1406 142.509 14.3945ZM135.469 13.6562H140.707C140.637 13.0352 140.37 12.5283 139.907 12.1357C139.45 11.7432 138.879 11.5469 138.193 11.5469C137.502 11.5469 136.913 11.7344 136.427 12.1094C135.94 12.4844 135.621 13 135.469 13.6562ZM148.819 10.0352C149.95 10.0352 150.844 10.3896 151.5 11.0986C152.162 11.8076 152.493 12.7686 152.493 13.9814V19H150.832V14.1572C150.832 13.3896 150.615 12.7744 150.182 12.3115C149.748 11.8486 149.168 11.6172 148.441 11.6172C147.703 11.6172 147.114 11.8486 146.675 12.3115C146.235 12.7744 146.016 13.3896 146.016 14.1572V19H144.337V10.2197H146.016V11.749C146.297 11.2041 146.678 10.7822 147.158 10.4834C147.645 10.1846 148.198 10.0352 148.819 10.0352ZM159.199 11.8018H156.826V15.8535C156.826 16.9785 157.412 17.541 158.584 17.541C158.836 17.541 159.041 17.5176 159.199 17.4707V19C158.93 19.0703 158.61 19.1055 158.241 19.1055C157.292 19.1055 156.542 18.833 155.991 18.2881C155.44 17.7373 155.165 16.9375 155.165 15.8887V11.8018H153.46V10.2197H155.165V7.83789H156.826V10.2197H159.199V11.8018ZM161.098 6.39648H162.891L162.82 15.4932H161.168L161.098 6.39648ZM161.994 19.1758C161.643 19.1758 161.35 19.0615 161.115 18.833C160.887 18.6045 160.772 18.3174 160.772 17.9717C160.772 17.6377 160.887 17.3535 161.115 17.1191C161.35 16.8848 161.643 16.7676 161.994 16.7676C162.334 16.7676 162.621 16.8848 162.855 17.1191C163.096 17.3535 163.216 17.6377 163.216 17.9717C163.216 18.3115 163.099 18.5986 162.864 18.833C162.63 19.0615 162.34 19.1758 161.994 19.1758Z" fill="#65816D"/>
<rect x="87.5859" y="31" width="26" height="26" fill="#00B67A"/>
<path d="M108.586 42.2368H102.476L100.589 36.4219L98.6958 42.2368L92.5859 42.2309L97.534 45.8284L95.6409 51.6375L100.589 48.0459L105.531 51.6375L103.644 45.8284L108.586 42.2368Z" fill="white"/>
<path d="M104.065 47.1433L103.641 45.8281L100.586 48.0456L104.065 47.1433Z" fill="#00B67A"/>
<rect x="117.586" y="31" width="26" height="26" fill="#00B67A"/>
<path d="M138.586 42.2368H132.476L130.589 36.4219L128.696 42.2368L122.586 42.2309L127.534 45.8284L125.641 51.6375L130.589 48.0459L135.531 51.6375L133.644 45.8284L138.586 42.2368Z" fill="white"/>
<path d="M134.065 47.1433L133.641 45.8281L130.586 48.0456L134.065 47.1433Z" fill="#00B67A"/>
<rect x="147.586" y="31" width="26" height="26" fill="#00B67A"/>
<path d="M168.586 42.2368H162.476L160.589 36.4219L158.696 42.2368L152.586 42.2309L157.534 45.8284L155.641 51.6375L160.589 48.0459L165.531 51.6375L163.644 45.8284L168.586 42.2368Z" fill="white"/>
<path d="M164.065 47.1433L163.641 45.8281L160.586 48.0456L164.065 47.1433Z" fill="#00B67A"/>
<rect x="177.586" y="31" width="26" height="26" fill="#00B67A"/>
<path d="M198.586 42.2368H192.476L190.589 36.4219L188.696 42.2368L182.586 42.2309L187.534 45.8284L185.641 51.6375L190.589 48.0459L195.531 51.6375L193.644 45.8284L198.586 42.2368Z" fill="white"/>
<path d="M194.065 47.1433L193.641 45.8281L190.586 48.0456L194.065 47.1433Z" fill="#00B67A"/>
<rect x="207.586" y="31" width="26" height="26" fill="#00B67A"/>
<rect x="207.586" y="31" width="13" height="26" fill="#00B67A"/>
<path d="M228.586 42.2368H222.476L220.589 36.4219L218.696 42.2368L212.586 42.2309L217.534 45.8284L215.641 51.6375L220.589 48.0459L225.531 51.6375L223.644 45.8284L228.586 42.2368Z" fill="white"/>
<path d="M224.065 47.1433L223.641 45.8281L220.586 48.0456L224.065 47.1433Z" fill="#00B67A"/>
<path d="M258.614 45.6582V47.249H257.006V50H255.266V47.249H248.946V46.0186L253.517 37.3965H255.477L251.108 45.6582H255.266V41.7207H257.006V45.6582H258.614ZM261.312 50.1758C260.961 50.1758 260.668 50.0615 260.434 49.833C260.205 49.6045 260.091 49.3174 260.091 48.9717C260.091 48.6377 260.205 48.3535 260.434 48.1191C260.668 47.8848 260.961 47.7676 261.312 47.7676C261.652 47.7676 261.939 47.8848 262.174 48.1191C262.414 48.3535 262.534 48.6377 262.534 48.9717C262.534 49.3115 262.417 49.5986 262.183 49.833C261.948 50.0615 261.658 50.1758 261.312 50.1758ZM271.385 49.1123C270.594 49.8096 269.583 50.1582 268.353 50.1582C267.122 50.1582 266.108 49.8096 265.312 49.1123C264.521 48.415 264.125 47.5303 264.125 46.458C264.125 45.7197 264.345 45.0547 264.784 44.4629C265.224 43.8652 265.801 43.4492 266.516 43.2148C265.953 42.998 265.493 42.6406 265.136 42.1426C264.784 41.6445 264.608 41.1084 264.608 40.5342C264.608 39.5791 264.96 38.7939 265.663 38.1787C266.366 37.5635 267.263 37.2559 268.353 37.2559C269.442 37.2559 270.339 37.5635 271.042 38.1787C271.745 38.7939 272.097 39.5791 272.097 40.5342C272.097 41.1084 271.918 41.6445 271.561 42.1426C271.209 42.6406 270.752 42.998 270.189 43.2148C270.904 43.4492 271.481 43.8652 271.921 44.4629C272.36 45.0547 272.58 45.7197 272.58 46.458C272.58 47.5303 272.182 48.415 271.385 49.1123ZM266.867 41.9053C267.254 42.2393 267.749 42.4062 268.353 42.4062C268.956 42.4062 269.451 42.2393 269.838 41.9053C270.225 41.5654 270.418 41.1318 270.418 40.6045C270.418 40.083 270.225 39.6553 269.838 39.3213C269.451 38.9873 268.956 38.8203 268.353 38.8203C267.749 38.8203 267.254 38.9873 266.867 39.3213C266.486 39.6553 266.296 40.083 266.296 40.6045C266.296 41.1377 266.486 41.5713 266.867 41.9053ZM268.353 48.541C269.091 48.541 269.697 48.333 270.172 47.917C270.652 47.4951 270.893 46.9648 270.893 46.3262C270.893 45.6992 270.652 45.1807 270.172 44.7705C269.697 44.3545 269.091 44.1465 268.353 44.1465C267.626 44.1465 267.022 44.3545 266.542 44.7705C266.067 45.1807 265.83 45.6992 265.83 46.3262C265.83 46.9648 266.067 47.4951 266.542 47.917C267.022 48.333 267.626 48.541 268.353 48.541Z" fill="#65816D"/>
</svg>